# File created by Blade
# Date/Time:  Tue Jan 27 19:58:31 2015
# Frame Rate: 120.000 fps
#------------------------------------------------------
:FULLY-SPECIFIED
:DEGREES
2178
root 7.866300 32.653235 3.818108 -1.468893 -27.559364 -17.327431
Spine 6.974724 22.988468 12.045496
Head 7.943067 -8.783947 6.009849
LeftShoulder -17.778402 6.380369 29.614160
LeftArm -9.246722 -8.646247 -85.101200
LeftForeArm -25.143595 -0.000000 129.112031
LeftHand 9.521983 -0.000000 -28.014720
LeftHandThumb1 -26.253704 0.000000 33.147579
RightShoulder -18.187608 -20.217186 -23.955860
RightArm 2.201606 -1.218766 79.905046
RightForeArm -13.330965 0.000000 16.291110
RightHand 19.267895 -0.000000 7.379163
RightHandThumb1 -24.326973 -0.000000 -32.862282
LeftUpLeg 16.622498 15.233892 4.520657
LeftLeg -2.154549 -0.000000 0.000000
LeftFoot -24.282440 22.910156 -18.476812
LeftToeBase 22.950887 -0.000000 -0.000000
RightUpLeg -61.850290 -55.299970 -14.858686
RightLeg 104.293410 -0.000000 -0.000000
RightFoot 26.965737 -26.859659 23.868551
RightToeBase 11.014380 -0.000000 -0.000000
2179
root 7.880399 32.649494 3.815207 -1.416333 -27.606074 -17.296512
Spine 7.019131 22.907444 11.999465
Head 7.782122 -8.675721 5.975816
LeftShoulder -17.746329 6.299230 29.614180
LeftArm -9.259794 -8.571551 -85.295693
LeftForeArm -25.014601 -0.000000 129.200851
LeftHand 9.556508 -0.000000 -28.212198
LeftHandThumb1 -26.253704 0.000000 33.147579
RightShoulder -18.189659 -20.178511 -23.980119
RightArm 2.234488 -1.107321 80.033358
RightForeArm -13.568089 -0.000000 16.228625
RightHand 19.373194 -0.000000 7.551693
RightHandThumb1 -24.326973 -0.000000 -32.862282
LeftUpLeg 16.525615 15.192586 4.432590
LeftLeg -2.111226 -0.000000 0.000000
LeftFoot -24.353621 22.922291 -18.570609
LeftToeBase 23.023899 -0.000000 -0.000000
RightUpLeg -61.968563 -55.323067 -14.684732
RightLeg 104.303788 -0.000000 -0.000000
RightFoot 26.902096 -26.889685 23.940511
RightToeBase 11.470868 -0.000000 -0.000000
2180
root 7.902159 32.646709 3.801516 -1.352590 -27.612888 -17.239172
Spine 7.091533 22.824964 11.932187
Head 7.547958 -8.594960 5.939648
LeftShoulder -17.738745 6.237082 29.597268
LeftArm -9.190598 -8.426744 -85.505211
LeftForeArm -24.936893 -0.000000 129.288030
LeftHand 9.587170 -0.000000 -28.358356
LeftHandThumb1 -26.253704 0.000000 33.147579
RightShoulder -18.243281 -20.131134 -23.956035
RightArm 2.257066 -1.502300 80.058427
RightForeArm -13.165802 -0.000000 16.278373
RightHand 19.246020 0.000000 7.500879
RightHandThumb1 -24.326973 -0.000000 -32.862282
LeftUpLeg 16.334978 15.056926 4.292279
LeftLeg -2.006350 -0.000000 0.000000
LeftFoot -24.533704 22.938305 -18.818640
LeftToeBase 23.295822 -0.000000 -0.000000
RightUpLeg -62.132115 -55.340515 -14.495283
RightLeg 104.294499 -0.000000 -0.000000
RightFoot 26.914210 -26.940173 24.094579
RightToeBase 11.405698 -0.000000 -0.000000
2181
root 7.915948 32.643677 3.795451 -1.296124 -27.660208 -17.215630
Spine 7.156373 22.762405 11.894857
Head 7.364941 -8.528323 5.889545
LeftShoulder -17.732600 6.219516 29.622782
LeftArm -9.149784 -8.310883 -85.684298
LeftForeArm -24.806295 -0.000000 129.387019
LeftHand 9.507335 -0.000000 -28.635222
LeftHandThumb1 -26.253704 0.000000 33.147579
RightShoulder -18.245476 -20.077262 -23.960374
RightArm 2.255767 -1.546052 80.131865
RightForeArm -13.387324 -0.000000 16.247194
RightHand 19.296727 -0.000000 7.452272
RightHandThumb1 -24.326973 -0.000000 -32.862282
LeftUpLeg 16.237371 15.005976 4.206206
LeftLeg -1.973055 -0.000000 0.000000
LeftFoot -24.472799 23.038070 -18.704754
LeftToeBase 22.944041 -0.000000 -0.000000
RightUpLeg -62.287969 -55.328099 -14.268517
RightLeg 104.307774 -0.000000 -0.000000
RightFoot 27.009065 -26.859136 23.896430
RightToeBase 11.410413 -0.000000 -0.000000
2182
root 7.927512 32.640990 3.789676 -1.242285 -27.729277 -17.193110
Spine 7.225440 22.753052 11.857872
Head 7.171077 -8.410383 5.839342
LeftShoulder -17.703564 6.281812 29.629645
LeftArm -9.048582 -8.099289 -85.822564
LeftForeArm -24.835086 -0.000000 129.488506
LeftHand 9.596404 -0.000000 -28.680383
LeftHandThumb1 -26.253704 0.000000 33.147579
RightShoulder -18.256752 -20.076122 -23.944805
RightArm 2.282175 -1.534172 80.212342
RightForeArm -13.482646 -0.000000 16.233678
RightHand 19.212748 -0.000000 7.624725
RightHandThumb1 -24.326973 -0.000000 -32.862282
LeftUpLeg 16.158394 14.988970 4.136007
LeftLeg -1.964909 -0.000000 0.000000
LeftFoot -24.588725 23.066953 -18.879868
LeftToeBase 23.180362 -0.000000 -0.000000
RightUpLeg -62.423606 -55.265264 -14.061604
RightLeg 104.312768 -0.000000 -0.000000
RightFoot 26.947301 -26.929808 24.045604
RightToeBase 11.652018 -0.000000 -0.000000
